<?xml version="1.0" encoding="iso-8859-1"?><svg viewBox="0 0 25.63 25.63" xmlns="http://www.w3.org/2000/svg" xmlns:xlink="http://www.w3.org/1999/xlink"><style>:root>svg{display:none}:root>svg:target{display:block}</style><svg viewBox="0 0 17.837 17.837" id="check-mark" xmlns="http://www.w3.org/2000/svg"><path d="M16.145 2.571a.7.7 0 00-.99 0L6.92 10.804l-4.241-4.27a.698.698 0 00-.989 0L.204 8.019a.703.703 0 000 .99l6.217 6.258a.704.704 0 00.99 0L17.63 5.047a.7.7 0 000-.994l-1.485-1.482z" fill="#030104"/></svg><svg viewBox="0 0 25.625 25.625" id="phone" xmlns="http://www.w3.org/2000/svg"><path d="M22.079 17.835c-1.548-1.324-3.119-2.126-4.648-.804l-.913.799c-.668.58-1.91 3.29-6.712-2.234-4.801-5.517-1.944-6.376-1.275-6.951l.918-.8c1.521-1.325.947-2.993-.15-4.71l-.662-1.04C7.535.382 6.335-.743 4.81.58l-.824.72c-.674.491-2.558 2.087-3.015 5.119-.55 3.638 1.185 7.804 5.16 12.375 3.97 4.573 7.857 6.87 11.539 6.83 3.06-.033 4.908-1.675 5.486-2.272l.827-.721c1.521-1.322.576-2.668-.973-3.995l-.931-.801z" fill="#030104"/></svg><svg viewBox="0 0 20.766 20.766" id="wi-fi" xmlns="http://www.w3.org/2000/svg"><g fill="#030104"><circle cx="10.432" cy="15.771" r="2.426"/><path d="M16.23 9.926c-.036-.037-.074-.07-.111-.104l-.109-.103c-.018-.019-.038-.033-.061-.051a7.914 7.914 0 00-10.932.257l-.351.352-.486.486a1.522 1.522 0 00.004 2.15 1.52 1.52 0 002.15.004l.838-.838a4.89 4.89 0 016.904-.001l.605.586a1.508 1.508 0 002.131-.005 1.5 1.5 0 00.443-1.066 1.483 1.483 0 00-.439-1.063l-.586-.604z"/><path d="M20.363 6.927l-.504-.504c-.002-.002-.003-.005-.007-.006l-.398-.4a1.435 1.435 0 00-.226-.181c-5.113-4.489-12.89-4.351-17.84.411-.024.022-.051.037-.075.061l-.91.911a1.384 1.384 0 00.006 1.959 1.384 1.384 0 001.959.005l.91-.909c.006-.008.011-.015.017-.02 4.003-3.867 10.353-3.891 14.388-.079l.716.717a1.387 1.387 0 001.96-.005 1.388 1.388 0 00.004-1.96z"/></g></svg></svg>